<?xml version="1.0" encoding="UTF-8"?>
<!--
  VFX: vfx_glitch.svg
  Type: Chromatic-aberration overlay tile (tileable)
  Frame size: 256x256px | Single tile (no animation strip)
  Usage: render as a screen-space overlay at low opacity (0.3–0.6)
         Shift R channel +4px X, B channel -4px X for CA effect
         Can be tiled or stretched to full screen
  Color channels: Red shifted right, Blue shifted left, Green centered
-->
<svg xmlns="http://www.w3.org/2000/svg" viewBox="0 0 256 256" width="256" height="256">
  <defs>
    <filter id="ca-red">
      <feOffset dx="4" dy="0"/>
      <feColorMatrix type="matrix" values="1 0 0 0 0  0 0 0 0 0  0 0 0 0 0  0 0 0 1 0"/>
    </filter>
    <filter id="ca-blue">
      <feOffset dx="-4" dy="0"/>
      <feColorMatrix type="matrix" values="0 0 0 0 0  0 0 0 0 0  0 0 1 0 0  0 0 0 1 0"/>
    </filter>
    <filter id="scanlines">
      <feTurbulence type="fractalNoise" baseFrequency="0 0.5" numOctaves="1" result="noise"/>
      <feColorMatrix type="saturate" values="0" in="noise" result="gray"/>
      <feBlend in="SourceGraphic" in2="gray" mode="multiply"/>
    </filter>
    <pattern id="scan" x="0" y="0" width="256" height="4" patternUnits="userSpaceOnUse">
      <rect width="256" height="1" y="0" fill="#000000" opacity="0.25"/>
      <rect width="256" height="1" y="2" fill="#000000" opacity="0.1"/>
    </pattern>
    <pattern id="noise-tile" x="0" y="0" width="8" height="8" patternUnits="userSpaceOnUse">
      <rect width="8" height="8" fill="none"/>
      <rect x="0" y="0" width="2" height="2" fill="#ff0000" opacity="0.05"/>
      <rect x="4" y="2" width="1" height="1" fill="#0000ff" opacity="0.07"/>
      <rect x="6" y="5" width="2" height="1" fill="#00ff00" opacity="0.04"/>
      <rect x="1" y="6" width="3" height="1" fill="#ff00ff" opacity="0.06"/>
    </pattern>
  </defs>

  <!-- Base: transparent dark ground -->
  <rect width="256" height="256" fill="#050008" opacity="0.85"/>

  <!-- Horizontal glitch tear lines (random y positions) -->
  <rect x="0"   y="23"  width="256" height="2" fill="#ff0044" opacity="0.5"/>
  <rect x="0"   y="24"  width="180" height="1" fill="#00ffff" opacity="0.3" transform="translate(6,0)"/>
  <rect x="0"   y="57"  width="90"  height="3" fill="#ff00ff" opacity="0.4"/>
  <rect x="90"  y="57"  width="166" height="2" fill="#00ffff" opacity="0.35" transform="translate(-8,0)"/>
  <rect x="0"   y="91"  width="256" height="1" fill="#ff0044" opacity="0.3"/>
  <rect x="0"   y="112" width="140" height="4" fill="#00ffff" opacity="0.45" transform="translate(12,0)"/>
  <rect x="140" y="113" width="116" height="2" fill="#ff00ff" opacity="0.4" transform="translate(-5,0)"/>
  <rect x="0"   y="148" width="256" height="2" fill="#ff0044" opacity="0.55"/>
  <rect x="0"   y="149" width="80"  height="1" fill="#00ffff" opacity="0.3" transform="translate(-4,0)"/>
  <rect x="80"  y="149" width="176" height="1" fill="#ff00ff" opacity="0.3" transform="translate(8,0)"/>
  <rect x="0"   y="183" width="210" height="3" fill="#ff0044" opacity="0.4"/>
  <rect x="210" y="183" width="46"  height="2" fill="#00ffff" opacity="0.35" transform="translate(10,0)"/>
  <rect x="0"   y="219" width="256" height="2" fill="#ff00ff" opacity="0.45"/>
  <rect x="0"   y="237" width="120" height="1" fill="#ff0044" opacity="0.25"/>

  <!-- Red channel ghost (offset right) -->
  <rect x="0" y="0" width="256" height="256" fill="none"
        stroke="#ff0000" stroke-width="0"
        opacity="0"/>
  <!-- Simulated red CA: semi-transparent red shifted slices -->
  <rect x="4"   y="57"  width="90"  height="3"  fill="#ff2200" opacity="0.3"/>
  <rect x="16"  y="112" width="140" height="4"  fill="#ff2200" opacity="0.25"/>
  <rect x="4"   y="148" width="256" height="2"  fill="#ff0000" opacity="0.3"/>
  <rect x="8"   y="183" width="210" height="3"  fill="#ff2200" opacity="0.2"/>

  <!-- Blue channel ghost (offset left) -->
  <rect x="-4"  y="57"  width="166" height="2"  fill="#0022ff" opacity="0.3" transform="translate(86,0)"/>
  <rect x="-4"  y="112" width="116" height="2"  fill="#0022ff" opacity="0.25" transform="translate(135,0)"/>
  <rect x="-4"  y="148" width="256" height="2"  fill="#0000ff" opacity="0.3"/>
  <rect x="-8"  y="219" width="256" height="2"  fill="#0022ff" opacity="0.2"/>

  <!-- Scanline overlay -->
  <rect width="256" height="256" fill="url(#scan)"/>

  <!-- Noise speckle -->
  <rect width="256" height="256" fill="url(#noise-tile)" opacity="0.7"/>

  <!-- Bright pixel flares -->
  <rect x="34"  y="14"  width="3" height="1" fill="#ffffff" opacity="0.9"/>
  <rect x="198" y="36"  width="2" height="1" fill="#ffffff" opacity="0.8"/>
  <rect x="72"  y="88"  width="4" height="1" fill="#ff88ff" opacity="0.9"/>
  <rect x="220" y="103" width="3" height="1" fill="#88ffff" opacity="0.85"/>
  <rect x="11"  y="155" width="5" height="1" fill="#ffffff" opacity="0.7"/>
  <rect x="148" y="201" width="2" height="1" fill="#ff88ff" opacity="0.9"/>
  <rect x="239" y="248" width="3" height="1" fill="#88ffff" opacity="0.8"/>

  <!-- Vertical tear artifacts -->
  <rect x="78"  y="0"  width="1" height="57"  fill="#00ffff" opacity="0.2"/>
  <rect x="179" y="91" width="2" height="92"  fill="#ff00ff" opacity="0.15"/>
  <rect x="223" y="0"  width="1" height="40"  fill="#ff0044" opacity="0.2"/>
</svg>
